<svg xmlns="http://www.w3.org/2000/svg" viewBox="0 0 362.4 334.28"><defs><style>.cls-1{fill:#fff;}</style></defs><title>Logoblancologo</title><g id="Capa_2" data-name="Capa 2"><g id="Capa_1-2" data-name="Capa 1"><g id="Capa_2-2" data-name="Capa 2"><g id="Capa_1-2-2" data-name="Capa 1-2"><path class="cls-1" d="M248.9,185.35c.5-.78.84-1.85,1.55-2.27,7.81-4.59,8.34-11.91,8.5-20,.38-17.65,1.49-35.29,2.39-52.93.22-4.44-.54-6.87-5.47-4a24.54,24.54,0,0,1-2.78,1.07c-12.76,5.26-22.8,12.1-20.86,28.65.86,7.15-.87,14.6-1.58,21.92-.15,1.46.77,4.27-1.92,3.91-2.16-.29-1.57-2.81-1.44-4.57.74-9.3,1.5-18.59,2.18-27.89.13-1.68,1.19-3.86-.85-4.87-2.21-1.08-3,1.44-4.12,2.56-9.93,9.43-15.86,20.65-15.48,34.71,0,2.31.32,5.85-3.42,2.23-2.08-2-3.07-.53-4.31.74q-8.5,8.73-17,17.51a11.64,11.64,0,0,0-3.17,8.65c0,9.73-.1,19.45-.23,29.18,0,1.64.6,4.38-1.69,4.37s-1.59-2.76-1.57-4.37q.1-14.59.48-29.16c.09-3.58-.54-6.71-3-9.36-5.46-6-10.92-12-16.42-18-2.59-2.82-4.23-2.38-5,1.47a50.52,50.52,0,0,1-2.11,8,2.85,2.85,0,0,1-3.56,1.9,2.79,2.79,0,0,1-.89-.46c-2.38-1.54-.12-2.38.72-3.57,5-7.36,4.15-15.48,2.11-23.39-2.39-9-7.5-16.55-14-23.14-1-1-1.95-2.38-3.46-1.84-2,.71-1.11,2.7-1.19,4.15-.28,4.61,1.19,9.33-1,15-2.56-4.46-2.16-8.54-1.78-12.05,1.19-10.59-4-16.74-12.92-20.9-3.41-1.6-6.61-3.57-10-5.24-4.76-2.26-6-1.35-6,3.92.37,14.29.82,28.58,1.19,42.87,0,2.27.75,4.76-1,7-2.55-1.37-1.73-3.79-1.79-5.73C97.55,136,97,120.52,96.87,105c0-4.56-1.75-6.94-6-8.23C85.05,95,79.25,93,73.43,91c-3.76-1.28-5.2.28-5.14,3.93.24,14.29.49,28.59.67,42.88,0,3.31,1.91,5.46,4.12,7.58q8.92,8.65,17.86,17.41c1.07,1.05,3,2.29,1.47,3.83s-2.79-.62-3.79-1.6C82.34,159,76.1,152.88,70,146.66a9.53,9.53,0,0,0-7.45-2.87c-13.1.15-26.2.27-39.3.18-4.58,0-6.36,1.31-4.45,6q3.75,9.07,7.15,18.25c1.5,4,4.64,4.27,8.23,4.23q23.81-.3,47.63-.4c2.14,0,4.35-.42,6.64.72-1.46,3-4.13,2.08-6.23,2.12-15.08.41-30.15.65-45.26,1-6.27.16-6.6,1-3.46,6.52a140,140,0,0,0,11.28,16.77,9.37,9.37,0,0,0,8.14,3.93c6-.09,11.91,0,17.87.19,1.68,0,4.53-.54,4.51,1.55,0,2.82-3,1.61-4.76,1.69-4,.15-7.95-.06-11.91,0-1.5,0-3.58-.69-4.3,1-.82,2.08,1.46,3,2.7,4.08a57.69,57.69,0,0,0,12.54,7.92c1.28.65,2.59,1.19,2.25,3.46-5.68-.66-10.06-3.91-14.29-7.15-14.6-11.06-24.33-26-32.15-42.16-13.75-28.38-20.89-58.57-25-89.6-1-7.36-.49-8.18,6.78-7.62,38.25,3,75.47,10,109.36,29.26,3.95,2.26,5.45,1.11,6.54-3.06C132.84,64.71,154,33,177.92,2.83c3.06-3.86,5.38-3.68,8.34,0,24.44,30.33,45.61,62.46,55.13,100.9,1.26,5.1,3.84,4.17,6.92,2.55,19-10,39.3-15.77,60.27-19.6a394.76,394.76,0,0,1,47.27-5.35c5.2-.32,7.25,1.19,6.34,6.74-5.4,33.25-13.69,65.6-30.23,95.27-8.08,14.51-17.87,27.65-31.82,37.15-2,1.37-3.95,3.23-7.7,2.77,3.75-5.25,9.78-6.88,13.19-11.38-1.93-2.5-4.53-1.26-6.73-1.68-2-.38-5.34,1-5.31-2,0-2.56,3.35-1.67,4.94-1.34,11.41,2.39,17.49-4,22.9-12.62,8.47-13.46,8.67-13.55-6.85-14.37-16.45-.89-32.92-1.2-49.37-1.93a10.73,10.73,0,0,0-7.6,2.64c-2.53,2.05-5.36,3.69-8.06,5.51Zm-67.7-26.8v16c0,1.1-.45,2.67,1.11,3a3.28,3.28,0,0,0,2.52-1.19c8.34-9.78,19.71-16.68,23.36-30.6,3.8-14.42,14.85-24,26.8-32.25,2.39-1.62,4.7-3.09,3.74-6.6-1.19-4.38-2.08-8.87-3.45-13.19-1.79-5.65-2.8-5.84-6.87-1.8-10.84,10.72-21.18,22-32.62,32.08-10.71,9.46-17.57,19.68-14.58,34.54Zm-2.85-2.26h.29c0-4.36-.25-8.73.07-13.1a12.82,12.82,0,0,0-4.12-10.6c-12-12.29-23.88-24.77-36-37-2.24-2.27-4.2-6.79-7.59-5.61s-2.85,6.08-4.2,9.3c-3,7.06-.87,11.91,5.32,16.53,11.54,8.67,19.69,19.92,21.9,34.7a8.8,8.8,0,0,0,2.39,4.76l17.79,19.06c.8.86,1.56,2,2.9,1.55s1.2-1.9,1.25-3c0-5.49,0-11,0-16.57Zm5.12-45.3v14.87c0,1.32-.53,3,.92,3.8,1.91,1,2.9-.88,3.92-1.88,14-13.78,27.89-27.62,41.85-41.45,2.11-2.07,2.76-4.24,1.53-6.94-3-6.48-6-13-8.95-19.42-1.42-3-3.19-3.65-5.81-1-6.65,6.82-13,14-20.25,20.07-10.17,8.53-16.23,18.19-13.2,31.91Zm109.38,9.06h.95c0-7.15-.06-14.24,0-21.36,0-3-.44-5.33-4.24-4.24-7,2-14.18,3.58-20.94,6.52-2.58,1.12-3.46,2.9-3.57,5.52q-1.53,29.94-3.14,59.87c-.07,1.33-.49,2.95,1.19,3.57s2.55-.71,3.57-1.63c4.38-4,8.41-8.47,13.17-11.91,9.53-6.91,13.39-15.92,12.45-27.39a59.53,59.53,0,0,1,.57-9Zm-114.16-6.8h.25V98.4c0-2.18,0-4.31-1.7-6.09q-14.82-15.39-29.57-30.84c-2.83-3-5-1.58-6.35,3.62a43,43,0,0,0-5.85,13c-2.95,4.36-4.3,7.44-1.22,10.69q20.33,20.85,40.49,41.77c.78.8,1.58,2.06,2.93,1.33s1-2.06,1-3.21c.08-5.15.06-10.31.06-15.45ZM299,176v.75c8.52,0,17-.37,25.53.13,5,.3,7.72-1.37,9.53-5.84,2.29-5.7,4.94-11.22,7.46-16.82,1.89-4.19.38-5.74-4-5.8-13.47-.15-26.94-.51-40.41-.82a9.31,9.31,0,0,0-7.14,2.38c-7,6.67-14.14,13.28-21.21,19.92-1,.93-2.67,1.78-2.3,3.22.49,1.94,2.55,1.45,4,1.52Q284.73,175.29,299,176ZM65.69,113.25h-.55c-.16-3.17-.34-6.32-.44-9.53-.62-16.38-.62-16.38-17.2-18.17a7,7,0,0,1-1.19-.14c-3.57-.68-5.18.71-4.86,4.46.66,7.87,1.19,15.77,1.77,23.64a7.87,7.87,0,0,0,2.14,5.37q8.05,7.89,16,15.83c.86.86,1.84,1.66,3.11,1.19s1.19-1.94,1.19-3.07c0-6.52,0-13,0-19.56Zm228.76,11.33h0v11.21c.9,1.29.3,3,2.16,3.52,1.29.35,2.1-.83,2.95-1.62q7.43-6.88,14.84-13.84c1.6-1.49,3.07-3,3.34-5.4.91-8.67,1.95-17.33,2.93-26,.34-3.15-1.12-4.5-4.21-4-4.87.88-9.72,1.91-14.59,2.74-3.1.53-4.16,2.26-4.33,5.31a207.32,207.32,0,0,1-3.09,28.54Zm-111-53.49V81.81c0,1.32-.53,3.06,1,3.79,1.81.86,2.83-.84,3.92-1.9,6-6,12.11-12,18.06-18.08,13.91-14.29,13.89-8.69,2.54-27.39-2-3.36-4.11-3.88-6.85-.6a98.13,98.13,0,0,1-9.52,10.55C185.6,54.38,181.3,61.38,183.47,71.09Zm138.16,73.84h0c1.58.08,3.17.2,4.76.22,21.24.38,16.59,4.37,23.45-17.28,1.36-4.3-.44-5.17-4.22-5.31-24.5-1-27.18,0-44.33,17-1,.95-2.49,1.76-1.75,3.37s2.38,1,3.73,1.08c6.09.42,12.23.66,18.36.93ZM178.91,69.72c-.59-3.37,2.2-9.12-1.38-13.75-4.95-6.39-10.53-12.29-15.8-18.43-2.9-3.36-5.17-2-7.3,3.36a29.43,29.43,0,0,1-5.17,8.2c-2.4,2.82-3,5.13-.79,7.48,8.86,9.27,17.69,18.59,26.57,27.85a3.61,3.61,0,0,0,2.47,1.26c1.4-.23,1.41-1.71,1.43-2.88C178.94,79.05,178.91,75.29,178.91,69.72Zm-140.4,71v-.25H57.56c1.19,0,2.55.07,3.12-1.19s-.62-2.18-1.41-3c-5.09-5-10.24-9.95-15.37-14.91a7.84,7.84,0,0,0-5.37-2.24c-7.93-.27-15.86-.48-23.82-.73-3.49-.12-4.68,1.52-3.76,4.84,1.19,4.2,2.52,8.33,3.39,12.63.76,3.65,2.86,4.9,6.3,4.86C26.6,140.61,32.55,140.68,38.51,140.68Zm145-104.29V46.46c0,1.32-.4,3,1.19,3.57,1.19.42,2.16-.75,3-1.61,4.55-4.94,9-9.94,13.63-14.86,1.56-1.67,2-3.4.64-5.31-2.78-3.75-4.71-8.27-9.09-10.55-.49-.25-1.87,1.19-2.8,1.87A16.74,16.74,0,0,0,183.47,36.39Zm138.3,74c.11,1.72-.87,3.81.61,4.62,1.94,1.06,3.07-1.19,4.3-2.3,4-3.57,8-7.14,11.75-10.87,4.1-4.05,4.4-9.81,3-14.29-1.19-3.79-6.31-.79-9.67-1a14.77,14.77,0,0,0-1.76.17c-4,.18-6,2.07-6.3,6.24C323.26,98.75,322.4,104.64,321.77,110.34ZM39.85,105.8c-.51-5.84-1-11.55-1.5-17.26-.21-2.38-.42-5-3.45-5.46-4.42-.74-8.77-2.89-13.32-1-.61.25-1,1.69-1,2.57,0,5.12-.19,10.26,4.46,14.08,3.5,2.88,6.6,6.25,9.89,9.38,1.11,1,2.08,2.94,3.81,2.3C41,109.56,39.56,107.29,39.85,105.8Zm299.36,14c13.38-.31,13.24-.35,16.14-12.41,1.06-4.43-.34-5.42-4.57-5.59C339,101.36,334,110.91,327,117.33c-2,1.79.53,2.46,2.18,2.48C332.49,119.88,335.84,119.85,339.21,119.85ZM180.9,38.51h.3V31.36a13.41,13.41,0,0,0-7.94-12.24c-3.74-1.71-5,4.33-7.6,6.73-.42.39-.58,1-1,1.46-2.83,3.16-2,5.85.68,8.72,3.79,4,7.28,8.33,10.95,12.42.85,1,1.59,2.64,3.25,1.95s1.31-2.3,1.33-3.65C180.94,44,180.9,41.27,180.9,38.51ZM22.65,115.19v.33h9.53c2.59,0,4.2-1.08,1.87-3.46a189.72,189.72,0,0,0-14.2-13.44c-3.21-2.66-7.53-2-11.46-1.69-2.19.14-2.81,1.64-2.76,3.75.3,11.75,2.71,14.17,14.65,14.51C21.07,115.22,21.85,115.19,22.65,115.19ZM17,85.42c.27-4.36-2.62-5.36-6.07-5.7-1.19-.1-2.44,0-2.62,1.62-.13,1.12,6.16,7.73,7.2,7.46,1.79-.47,1.43-2.06,1.47-3.37ZM180.89,13.09c-1.58-1.34,1.45-4.92-2.06-4.88-2.48,0-4.16,2.93-4.22,5.57-.07,2.46,1.58,5.17,3.89,5.08C182,18.69,179.67,15.14,180.89,13.09ZM350.56,85.24c-4.54-.65-5.41,2.2-5.6,5.74-.06,1.19-.18,2.48,1.28,2.92,1,.32,7.69-6,7.52-7.15C353.46,84.75,351.76,85.4,350.56,85.24ZM10,92.87c.7-.4,2.38.75,3-1.2.39-1.41-5.35-7.07-7.15-7.14S3.93,85.61,4,86.8c.09,3.54,1.49,6,5.94,6.07ZM183.21,13.09C183.94,15,182,18.4,185,18.55c2.47.1,4.6-2.66,4.48-5.41-.11-2.38-1.87-5.1-4.18-5.11C181.91,8,184.14,11.45,183.21,13.09ZM357.43,90c-2.61,0-3.69,2.16-5.23,3.57-1.19,1.12-3.32,1.86-2.71,4.09.1.42,1.32.72,2,.76,2.19.11,4.54.27,5.66-2.2C358.08,94.29,358.66,92.19,357.43,90Z"/><path class="cls-1" d="M82.35,256c1.75-24,5.1-47.41,16.27-69.07,5.22-10.14,11.65-19.4,20.63-26.59,3.11-2.48,6.69-4.94,10.87-2.95s5.09,6.34,5.11,10.65c0,12.39-3.57,24.28-5.17,36.45-.57,4.32-1.61,8.58-2.38,12.87-.24,1.31-1.19,2.87.21,3.89,1.6,1.19,2.92-.24,4.28-1,3.66-2,7.29-4,11-5.95,1.61-.83,3.57-1.53,4.57.71.84,1.93-1.06,2.84-2.38,3.57-5.46,3.19-11.14,6.05-16.19,10-1.92,1.49-3.72,3-4.09,5.6-2.77,18.91-4.89,37.76.85,56.6,7.92,26,27.52,39.41,54.71,37.87,14.29-.81,26.51-6.38,38-14.05,31.95-21.37,51.36-51.12,58.45-88.88a43.82,43.82,0,0,0-.93-21.78c-3.46-10.72-9.81-12.37-17.94-4.62-9.11,8.69-17.18,18.11-21.43,30.22-.56,1.56-1.49,3.18-3.39,2.61-2.38-.72-1.61-2.74-1.19-4.49a38.13,38.13,0,0,1,5.6-11.76,97.86,97.86,0,0,1,18-21.32c10.48-9.12,21-6,25,7.23,4.35,14.61,1.51,28.76-2.95,42.63Q261.13,296.27,214,323.59c-18.31,10.6-37.76,14.06-58.35,7-19.73-6.78-29.94-21.85-35.19-41-4.16-15.2-3.25-30.65-1.69-46.11.16-1.63,1.56-3.83-.56-4.76-1.94-.89-3.1,1.3-4.35,2.44-10.24,9.41-20,19.24-26.81,31.59-.77,1.43-1.59,3.68-3.87,2.9s-.78-2.69-.78-4.15C82.37,266.37,82.35,261.22,82.35,256Zm6-4.47a10.58,10.58,0,0,0,0,1.78c.16,1.7-.49,4.27.86,4.9s3.85-1.78,4.29-2.32c2.79-3.21,5.6-6.29,8.87-9.53a63.75,63.75,0,0,0,23.82-46.62,9.58,9.58,0,0,1,.22-1.19c1.5-10,4.31-19.78,4.3-30,0-2.38.08-5.08-2.55-6.18-2.38-1-4.16.86-5.77,2.27a74.79,74.79,0,0,0-12.29,13.64c-15.34,22.11-19.52,47.39-21.75,73.27Z"/><path class="cls-1" d="M170.61,265.87c-1.47,2.86-2.9,5.86-4.56,8.75-1,1.75-2.38,3.46-4.76,2.81s-2.74-2.71-2.74-4.77c0-6.74.1-13.49.1-20.24a17.13,17.13,0,0,0-.64-3.09c-3.22,2.38-3.43,5.76-4.68,8.54-.91,2-.83,5.27-4.16,4.84-2.76-.34-2.7-3-3.08-5.15-.16-.93-.52-1.83-1-3.46-3.16,4.26-3.1,8.93-4.69,13-1,2.58-1,6.88-4.89,6.4-4.19-.51-2.69-4.63-2.72-7.33,0-6.15.07-12.3.4-18.44.14-2.75-1.29-6.92,2.64-7.58s2.19,4.28,4,6.11c2.12-.49,2.06-2.75,3.29-4,1.58-1.55,3.74-2.86,5.15-1.06,4.38,5.58,5.28.77,7.15-2,1.39-2.1,2.64-5,5.74-4.33,3.37.76,3.5,4.08,3.57,6.79.14,4.15-.23,8.33-.23,12.49,0,1.86-.95,4,1.53,5.95,2.38-3.66,4.76-7.14,6.95-10.84s5.45-6.24,8.65-8.91a7.25,7.25,0,0,1,8.34-1c2.56,1.27,2,4.09,1.76,6.42-.57,5.32-1.36,10.62-1.95,15.94-.16,1.49-.66,3.47,1.53,3.9,1.78.35,2.22-1.42,2.78-2.61a103.86,103.86,0,0,0,9.93-36.5,185,185,0,0,1,10.15-46.36c.82-2.39,1.31-5.82,4.69-5.07,3.81.86,2.71,4.48,2.18,7-4.63,21.86-9.35,43.71-14.51,65.46-1.07,4.48-1.07,9.33,1,13.46a2.35,2.35,0,0,0,1.68,1.33c2.48.56,3.13-2,3.77-3.8,1.69-4.64,3-9.43,4.76-14.06.79-2.08,1.53-5.25,4.58-4.5,3.4.84,2.57,3.88,2,6.45-1,4.66-2,9.3-2.77,14-.23,1.38-.83,3.7,1.28,4,1.83.23,2.18-2,2.65-3.44,1.62-5.1,3.12-10.23,4.76-15.31.66-2,1.31-4.69,4.15-4.16s2.49,3.37,2.05,5.37c-2.1,9.53-4.52,18.91-4.39,28.74a3.45,3.45,0,0,1-2.61,3.57,2.27,2.27,0,0,1-2.76-1.62v-.06c-1.58-5.82-10.08-3-11.42-9.11a4.85,4.85,0,0,0-2.17.26c-4,2.13-7.14,1.41-9.59-2.57-1.82-3-3.38-1.78-4.76.55-1.73,2.95-3.77,5.67-7.14,6.87a5.09,5.09,0,0,1-5.47-1.41c-1.19-1.13-2.32-2.08-4.05-.58-5.16,4.5-7.67,1.67-9.28-3.49A2.63,2.63,0,0,0,170.61,265.87Zm8.8-.86c4,.77,9.3-15.49,4.6-16.38-4.18-.42-9.46,14.77-4.57,16.38Z"/></g></g></g></g></svg>